<svg width="27" height="22" fill="none" xmlns="http://www.w3.org/2000/svg"><path d="M26.375 3.457c-.969.428-1.997.71-3.049.835a5.327 5.327 0 0 0 2.336-2.938 10.608 10.608 0 0 1-3.372 1.289 5.309 5.309 0 0 0-9.046 4.842A15.073 15.073 0 0 1 2.301 1.937a5.291 5.291 0 0 0-.718 2.67 5.31 5.31 0 0 0 2.361 4.419 5.291 5.291 0 0 1-2.404-.664v.066a5.313 5.313 0 0 0 4.259 5.206 5.344 5.344 0 0 1-2.4.091 5.313 5.313 0 0 0 4.96 3.688A10.655 10.655 0 0 1 .5 19.612a15.017 15.017 0 0 0 8.137 2.386c9.766 0 15.107-8.09 15.107-15.106 0-.229-.007-.46-.017-.686a10.784 10.784 0 0 0 2.65-2.748l-.002-.001z" fill="#fff"/></svg>
