<svg fill="none" height="18" width="18" xmlns="http://www.w3.org/2000/svg"><path d="M3.61 7.781a15.797 15.797 0 0 0 2.765 3.844 15.797 15.797 0 0 0 3.844 2.766l2.203-2.204c.281-.28.625-.359 1.031-.234 1.125.375 2.313.563 3.563.563.28 0 .515.093.703.28A.954.954 0 0 1 18 13.5v3.516a.955.955 0 0 1-.281.703.955.955 0 0 1-.703.281c-2.25 0-4.422-.422-6.516-1.266a17.035 17.035 0 0 1-5.531-3.703A17.034 17.034 0 0 1 1.266 7.5 17.275 17.275 0 0 1 0 .984.96.96 0 0 1 .984 0H4.5c.281 0 .516.094.703.281s.281.422.281.703c0 1.25.188 2.438.563 3.563.125.406.047.75-.234 1.031z" fill="#fff"/></svg>
