<svg fill="none" height="20" width="14" xmlns="http://www.w3.org/2000/svg"><path d="M7 9.484a2.516 2.516 0 0 1-1.781-.703c-.469-.5-.703-1.094-.703-1.781s.234-1.266.703-1.734c.5-.5 1.093-.75 1.781-.75s1.266.25 1.734.75c.5.468.75 1.047.75 1.734s-.25 1.281-.75 1.781c-.468.469-1.047.703-1.734.703zM7 .016c-1.281 0-2.453.312-3.516.937a7.02 7.02 0 0 0-2.53 2.531C.327 4.547.015 5.704.015 6.954s.359 2.687 1.078 4.312c.593 1.28 1.39 2.687 2.39 4.218a67.502 67.502 0 0 0 2.438 3.235L7 19.984l1.078-1.265a67.488 67.488 0 0 0 2.438-3.235c1-1.53 1.796-2.937 2.39-4.218.719-1.625 1.078-3.063 1.078-4.313s-.312-2.406-.937-3.469a7.02 7.02 0 0 0-2.531-2.53C9.453.327 8.28.015 7 .015z" fill="#fff"/></svg>
