<svg xmlns="http://www.w3.org/2000/svg" width="155" height="65" fill="none"><path d="M20.15 40.436c-.177 3.036-2.53 4.095-6.45 3.656a4.458 4.458 0 01-2.853-1.532 4.633 4.633 0 01-1.11-3.088V24.993c0-3.227 1.687-5.085 4.967-5.438 2.58-.275 5.379 1.644 5.497 4.397a162.89 162.89 0 01-.05 16.484zM28.961 42c.329-3.217.439-6.46.65-9.721-.22-3.528-.287-7.08-.684-10.582a10.216 10.216 0 00-1.28-4.01 10.004 10.004 0 00-2.775-3.123c-3.988-3.114-8.608-3.105-13.001-2.52-6.518.86-10.691 4.301-10.851 12.543-.102 5.162-.194 10.264 0 15.374.236 4.896 2.42 9.576 7.908 11.236a20.22 20.22 0 0011.475.267c4.638-1.316 8.01-4.233 8.558-9.464zm14.334-19.736a4.07 4.07 0 01.818-1.693c.4-.49.908-.877 1.483-1.128a5.602 5.602 0 014.149.662c1.45.998 2.445 2.71 3.726 4.224l7.049-2.822-.64-1.428c-3.829-8.732-13.398-10.04-20.304-6.564-6.568 3.295-7.048 14.126 0 18.454 3.17 1.962 6.568 3.536 9.823 5.36 3.254 1.824 3.786 4.998 1.13 6.78-1.333.911-5.413.954-6.745-.784-1.038-1.376-1.94-2.856-3.002-4.439l-7.833 2.202c2.757 4.913 5.06 9.67 10.86 10.53 2.83.438 5.713.404 8.532-.102 4.933-.99 7.589-4.569 8.432-9.55.497-2.977-.666-7.838-4.435-9.988-3.373-1.945-6.889-3.786-10.27-5.79-1.467-.86-3.11-2.03-2.79-3.967l.017.043zM92.34 51.121c0-9.825.245-19.452-.118-29.054-.143-3.828-2.293-7.011-6.045-8.87-3.752-1.858-7.715-1.058-11.804-1.23V0h-8.955v51.009h9.03v-26.24c0-4.121 2.226-5.119 4.697-5.222 2.841-.13 4.51 1.927 4.52 5.162V51.12h8.675zm31.196-30.112c.734-2.787 1.467-5.575 2.251-8.534h-9.165a42291.92 42291.92 0 01-5.64 25.457c-.337-.92-.557-1.368-.666-1.841-1.762-7.408-3.482-14.824-5.295-22.223-.144-.576-.843-1.402-1.391-1.428-2.673-.146-5.354-.068-8.128-.068.927 3.32 1.787 6.452 2.672 9.575 2.581 9.214 5.228 18.402 7.732 27.625 1.079 3.958-1.686 7.39-5.801 7.416h-2.816v7.881c2.428 0 4.637.267 6.745-.043 6.745-1.007 9.418-6.16 11.037-12.045 2.875-10.556 5.641-21.147 8.431-31.72l.034-.052zm31.255 1.988a10.796 10.796 0 00-.975-4.422 10.605 10.605 0 00-2.692-3.605c-4.09-3.588-8.929-3.442-13.71-2.71-3.474.516-6.661 2.21-7.967 5.867a25.264 25.264 0 00-1.602 7.614c-.203 7.743-.076 15.486-.068 23.229 0 .714.059 1.428.093 2.117h9.064V24.416c0-2.082.539-3.768 2.782-4.362 3.87-1.023 6.408.973 6.416 5.094V51.18h8.735c0-9.55.127-18.841-.076-28.124" fill="#fff"/></svg>