<svg width="410" height="410" viewBox="0 0 410 410" fill="none" xmlns="http://www.w3.org/2000/svg"><path d="M18.475 119.785L0 205.907c.016 3.784.143 7.537.366 11.274l23.054-107.43a189.449 189.449 0 0 0-4.945 10.034z" fill="url(#a)"/><path d="M38.807 84.897L2.731 238.568c.366 2.242.78 4.484 1.224 6.71l38.922-165.82a268.97 268.97 0 0 0-4.07 5.439z" fill="url(#b)"/><path d="M57.459 62.618L7.279 259.334c.478 1.733.97 3.451 1.495 5.168L61.243 58.818a170.626 170.626 0 0 0-3.784 3.8z" fill="url(#c)"/><path d="M75.615 45.924L12.382 275.333c.525 1.447 1.082 2.878 1.638 4.309l65.22-236.58c-1.24.938-2.433 1.892-3.625 2.862z" fill="url(#d)"/><path d="M93.528 32.885L17.75 288.53c.556 1.256 1.144 2.496 1.716 3.753L97.026 30.69a99.13 99.13 0 0 0-3.497 2.195z" fill="url(#e)"/><path d="M111.251 22.58L23.216 299.852a222.286 222.286 0 0 0 1.78 3.355l89.626-282.329c-1.113.573-2.242 1.13-3.371 1.702z" fill="url(#f)"/><path d="M128.818 14.563L28.794 309.836c.604 1.018 1.224 2.019 1.844 3.021L132.125 13.275c-1.097.43-2.21.843-3.307 1.288z" fill="url(#g)"/><path d="M146.233 8.507L34.443 318.774c.62.923 1.257 1.845 1.893 2.767L149.477 7.569a75.63 75.63 0 0 0-3.244.938z" fill="url(#h)"/><path d="M163.442 4.15L40.109 326.835c.636.858 1.289 1.701 1.925 2.56l124.54-325.85c-1.033.19-2.083.397-3.132.604z" fill="url(#i)"/><path d="M180.449 1.398L45.859 334.214c.652.795 1.304 1.59 1.972 2.385L183.518 1.049c-1.018.11-2.052.238-3.069.349z" fill="url(#j)"/><path d="M197.179.095L51.635 341.021c.667.747 1.32 1.495 2.003 2.242L200.184 0c-1.002.016-2.004.064-3.005.095z" fill="url(#k)"/><path d="M213.656.128L57.476 347.335c.683.699 1.35 1.399 2.034 2.083L216.566.255c-.97-.047-1.94-.079-2.91-.127z" fill="url(#l)"/><path d="M229.799 1.43L63.363 353.2a248.49 248.49 0 0 0 2.083 1.956L232.629 1.796a152.32 152.32 0 0 0-2.83-.366z" fill="url(#m)"/><path d="M245.572 3.958L69.326 358.67c.7.62 1.399 1.24 2.114 1.844L248.323 4.53c-.907-.19-1.829-.381-2.751-.572z" fill="url(#n)"/><path d="M260.924 7.665L75.36 363.81c.716.588 1.431 1.16 2.162 1.733L263.596 8.445c-.891-.255-1.781-.525-2.671-.78z" fill="url(#o)"/><path d="M275.838 12.515L81.498 368.642c.732.557 1.463 1.097 2.21 1.638L278.415 13.501a103.41 103.41 0 0 0-2.576-.986z" fill="url(#p)"/><path d="M290.233 18.444L87.721 373.14c.747.525 1.494 1.05 2.241 1.558L292.697 19.589c-.811-.366-1.637-.763-2.464-1.145z" fill="url(#q)"/><path d="M304.097 25.443L94.081 377.42c.763.493 1.526.97 2.305 1.447L306.482 26.763c-.811-.43-1.59-.875-2.385-1.32z" fill="url(#r)"/><path d="M317.36 33.456l-216.807 347.97c.78.461 1.559.938 2.338 1.383L319.617 34.951c-.747-.51-1.51-1.002-2.257-1.495z" fill="url(#s)"/><path d="M329.976 42.458L107.161 385.212c.795.429 1.606.858 2.416 1.272L332.123 44.127a70.767 70.767 0 0 0-2.147-1.67z" fill="url(#t)"/><path d="M341.932 52.395L113.981 388.724c.811.414 1.637.811 2.464 1.209l227.522-335.71c-.684-.604-1.351-1.224-2.035-1.828z" fill="url(#u)"/><path d="M123.529 393.16L355.058 65.274c-.636-.684-1.256-1.352-1.892-2.02L120.985 392.048c.843.382 1.686.747 2.544 1.113z" fill="url(#v)"/><path d="M130.81 396.166L365.344 77.232l-1.765-2.195-235.377 320.095c.875.35 1.749.7 2.608 1.034z" fill="url(#w)"/><path d="M138.379 398.934L374.805 90.05c-.541-.795-1.082-1.558-1.622-2.353L135.692 397.98c.89.318 1.796.636 2.687.954z" fill="url(#x)"/><path d="M146.242 401.447l237.062-297.706c-.477-.843-.969-1.685-1.462-2.528L143.444 400.604c.938.286 1.876.572 2.798.843z" fill="url(#y)"/><path d="M154.459 403.738l236.378-285.414c-.429-.906-.842-1.812-1.288-2.719L151.565 402.959c.97.27 1.924.525 2.894.779z" fill="url(#z)"/><path d="M163.092 405.723l234.2-271.962c-.366-.97-.731-1.924-1.097-2.894L160.087 405.055c1.002.238 2.003.461 3.005.668z" fill="url(#A)"/><path d="M172.236 407.394l230.336-257.316a173.49 173.49 0 0 0-.89-3.085L169.056 406.869c1.05.191 2.115.35 3.18.525z" fill="url(#B)"/><path d="M181.94 408.714l224.613-241.415c-.207-1.113-.414-2.21-.636-3.307L178.585 408.316c1.113.143 2.242.271 3.355.398z" fill="url(#C)"/><path d="M192.352 409.605l216.742-224.162a249.808 249.808 0 0 0-.366-3.53L188.806 409.367c1.161.095 2.353.175 3.546.238z" fill="url(#D)"/><path d="M203.624 410L410 204.602c0-1.272-.016-2.528-.048-3.785L199.824 409.952l3.8.048z" fill="url(#E)"/><path d="M216.027 409.714l193.02-184.87c.127-1.367.255-2.735.366-4.118L211.925 409.873c1.367-.032 2.735-.096 4.102-.159z" fill="url(#F)"/><path d="M229.95 408.49l175.864-162.067c.302-1.494.589-2.989.859-4.5l-181.286 167.06c1.526-.127 3.037-.302 4.563-.493z" fill="url(#G)"/><path d="M246.081 405.882l153.446-136.053a185.432 185.432 0 0 0 1.606-5.056L240.866 406.867c1.749-.302 3.482-.62 5.215-.985z" fill="url(#H)"/><path d="M265.931 400.809l122.744-104.695a207.795 207.795 0 0 0 2.878-6.026L259.571 402.654c2.13-.589 4.245-1.193 6.36-1.845z" fill="url(#I)"/><path d="M294.458 389.504l73.822-60.536a207.23 207.23 0 0 0 6.2-8.603l-89.641 73.528a219.828 219.828 0 0 0 9.619-4.389z" fill="url(#J)"/><defs><linearGradient id="a" x2="410" gradientUnits="userSpaceOnUse"><stop stop-color="#014FFD"/><stop offset=".255" stop-color="#3364DD"/><stop offset=".547" stop-color="#7041C3"/><stop offset=".792" stop-color="#A94DEB"/><stop offset="1" stop-color="#FE80FE"/></linearGradient><linearGradient id="b" x2="410" gradientUnits="userSpaceOnUse"><stop stop-color="#014FFD"/><stop offset=".255" stop-color="#3364DD"/><stop offset=".547" stop-color="#7041C3"/><stop offset=".792" stop-color="#A94DEB"/><stop offset="1" stop-color="#FE80FE"/></linearGradient><linearGradient id="c" x2="410" gradientUnits="userSpaceOnUse"><stop stop-color="#014FFD"/><stop offset=".255" stop-color="#3364DD"/><stop offset=".547" stop-color="#7041C3"/><stop offset=".792" stop-color="#A94DEB"/><stop offset="1" stop-color="#FE80FE"/></linearGradient><linearGradient id="d" x2="410" gradientUnits="userSpaceOnUse"><stop stop-color="#014FFD"/><stop offset=".255" stop-color="#3364DD"/><stop offset=".547" stop-color="#7041C3"/><stop offset=".792" stop-color="#A94DEB"/><stop offset="1" stop-color="#FE80FE"/></linearGradient><linearGradient id="e" x2="410" gradientUnits="userSpaceOnUse"><stop stop-color="#014FFD"/><stop offset=".255" stop-color="#3364DD"/><stop offset=".547" stop-color="#7041C3"/><stop offset=".792" stop-color="#A94DEB"/><stop offset="1" stop-color="#FE80FE"/></linearGradient><linearGradient id="f" x2="410" gradientUnits="userSpaceOnUse"><stop stop-color="#014FFD"/><stop offset=".255" stop-color="#3364DD"/><stop offset=".547" stop-color="#7041C3"/><stop offset=".792" stop-color="#A94DEB"/><stop offset="1" stop-color="#FE80FE"/></linearGradient><linearGradient id="g" x2="410" gradientUnits="userSpaceOnUse"><stop stop-color="#014FFD"/><stop offset=".255" stop-color="#3364DD"/><stop offset=".547" stop-color="#7041C3"/><stop offset=".792" stop-color="#A94DEB"/><stop offset="1" stop-color="#FE80FE"/></linearGradient><linearGradient id="h" x2="410" gradientUnits="userSpaceOnUse"><stop stop-color="#014FFD"/><stop offset=".255" stop-color="#3364DD"/><stop offset=".547" stop-color="#7041C3"/><stop offset=".792" stop-color="#A94DEB"/><stop offset="1" stop-color="#FE80FE"/></linearGradient><linearGradient id="i" x2="410" gradientUnits="userSpaceOnUse"><stop stop-color="#014FFD"/><stop offset=".255" stop-color="#3364DD"/><stop offset=".547" stop-color="#7041C3"/><stop offset=".792" stop-color="#A94DEB"/><stop offset="1" stop-color="#FE80FE"/></linearGradient><linearGradient id="j" x2="410" gradientUnits="userSpaceOnUse"><stop stop-color="#014FFD"/><stop offset=".255" stop-color="#3364DD"/><stop offset=".547" stop-color="#7041C3"/><stop offset=".792" stop-color="#A94DEB"/><stop offset="1" stop-color="#FE80FE"/></linearGradient><linearGradient id="k" x2="410" gradientUnits="userSpaceOnUse"><stop stop-color="#014FFD"/><stop offset=".255" stop-color="#3364DD"/><stop offset=".547" stop-color="#7041C3"/><stop offset=".792" stop-color="#A94DEB"/><stop offset="1" stop-color="#FE80FE"/></linearGradient><linearGradient id="l" x2="410" gradientUnits="userSpaceOnUse"><stop stop-color="#014FFD"/><stop offset=".255" stop-color="#3364DD"/><stop offset=".547" stop-color="#7041C3"/><stop offset=".792" stop-color="#A94DEB"/><stop offset="1" stop-color="#FE80FE"/></linearGradient><linearGradient id="m" x2="410" gradientUnits="userSpaceOnUse"><stop stop-color="#014FFD"/><stop offset=".255" stop-color="#3364DD"/><stop offset=".547" stop-color="#7041C3"/><stop offset=".792" stop-color="#A94DEB"/><stop offset="1" stop-color="#FE80FE"/></linearGradient><linearGradient id="n" x2="410" gradientUnits="userSpaceOnUse"><stop stop-color="#014FFD"/><stop offset=".255" stop-color="#3364DD"/><stop offset=".547" stop-color="#7041C3"/><stop offset=".792" stop-color="#A94DEB"/><stop offset="1" stop-color="#FE80FE"/></linearGradient><linearGradient id="o" x2="410" gradientUnits="userSpaceOnUse"><stop stop-color="#014FFD"/><stop offset=".255" stop-color="#3364DD"/><stop offset=".547" stop-color="#7041C3"/><stop offset=".792" stop-color="#A94DEB"/><stop offset="1" stop-color="#FE80FE"/></linearGradient><linearGradient id="p" x2="410" gradientUnits="userSpaceOnUse"><stop stop-color="#014FFD"/><stop offset=".255" stop-color="#3364DD"/><stop offset=".547" stop-color="#7041C3"/><stop offset=".792" stop-color="#A94DEB"/><stop offset="1" stop-color="#FE80FE"/></linearGradient><linearGradient id="q" x2="410" gradientUnits="userSpaceOnUse"><stop stop-color="#014FFD"/><stop offset=".255" stop-color="#3364DD"/><stop offset=".547" stop-color="#7041C3"/><stop offset=".792" stop-color="#A94DEB"/><stop offset="1" stop-color="#FE80FE"/></linearGradient><linearGradient id="r" x2="410" gradientUnits="userSpaceOnUse"><stop stop-color="#014FFD"/><stop offset=".255" stop-color="#3364DD"/><stop offset=".547" stop-color="#7041C3"/><stop offset=".792" stop-color="#A94DEB"/><stop offset="1" stop-color="#FE80FE"/></linearGradient><linearGradient id="s" x2="410" gradientUnits="userSpaceOnUse"><stop stop-color="#014FFD"/><stop offset=".255" stop-color="#3364DD"/><stop offset=".547" stop-color="#7041C3"/><stop offset=".792" stop-color="#A94DEB"/><stop offset="1" stop-color="#FE80FE"/></linearGradient><linearGradient id="t" x2="410" gradientUnits="userSpaceOnUse"><stop stop-color="#014FFD"/><stop offset=".255" stop-color="#3364DD"/><stop offset=".547" stop-color="#7041C3"/><stop offset=".792" stop-color="#A94DEB"/><stop offset="1" stop-color="#FE80FE"/></linearGradient><linearGradient id="u" x2="410" gradientUnits="userSpaceOnUse"><stop stop-color="#014FFD"/><stop offset=".255" stop-color="#3364DD"/><stop offset=".547" stop-color="#7041C3"/><stop offset=".792" stop-color="#A94DEB"/><stop offset="1" stop-color="#FE80FE"/></linearGradient><linearGradient id="v" x2="410" gradientUnits="userSpaceOnUse"><stop stop-color="#014FFD"/><stop offset=".255" stop-color="#3364DD"/><stop offset=".547" stop-color="#7041C3"/><stop offset=".792" stop-color="#A94DEB"/><stop offset="1" stop-color="#FE80FE"/></linearGradient><linearGradient id="w" x2="410" gradientUnits="userSpaceOnUse"><stop stop-color="#014FFD"/><stop offset=".255" stop-color="#3364DD"/><stop offset=".547" stop-color="#7041C3"/><stop offset=".792" stop-color="#A94DEB"/><stop offset="1" stop-color="#FE80FE"/></linearGradient><linearGradient id="x" x2="410" gradientUnits="userSpaceOnUse"><stop stop-color="#014FFD"/><stop offset=".255" stop-color="#3364DD"/><stop offset=".547" stop-color="#7041C3"/><stop offset=".792" stop-color="#A94DEB"/><stop offset="1" stop-color="#FE80FE"/></linearGradient><linearGradient id="y" x2="410" gradientUnits="userSpaceOnUse"><stop stop-color="#014FFD"/><stop offset=".255" stop-color="#3364DD"/><stop offset=".547" stop-color="#7041C3"/><stop offset=".792" stop-color="#A94DEB"/><stop offset="1" stop-color="#FE80FE"/></linearGradient><linearGradient id="z" x2="410" gradientUnits="userSpaceOnUse"><stop stop-color="#014FFD"/><stop offset=".255" stop-color="#3364DD"/><stop offset=".547" stop-color="#7041C3"/><stop offset=".792" stop-color="#A94DEB"/><stop offset="1" stop-color="#FE80FE"/></linearGradient><linearGradient id="A" x2="410" gradientUnits="userSpaceOnUse"><stop stop-color="#014FFD"/><stop offset=".255" stop-color="#3364DD"/><stop offset=".547" stop-color="#7041C3"/><stop offset=".792" stop-color="#A94DEB"/><stop offset="1" stop-color="#FE80FE"/></linearGradient><linearGradient id="B" x2="410" gradientUnits="userSpaceOnUse"><stop stop-color="#014FFD"/><stop offset=".255" stop-color="#3364DD"/><stop offset=".547" stop-color="#7041C3"/><stop offset=".792" stop-color="#A94DEB"/><stop offset="1" stop-color="#FE80FE"/></linearGradient><linearGradient id="C" x2="410" gradientUnits="userSpaceOnUse"><stop stop-color="#014FFD"/><stop offset=".255" stop-color="#3364DD"/><stop offset=".547" stop-color="#7041C3"/><stop offset=".792" stop-color="#A94DEB"/><stop offset="1" stop-color="#FE80FE"/></linearGradient><linearGradient id="D" x2="410" gradientUnits="userSpaceOnUse"><stop stop-color="#014FFD"/><stop offset=".255" stop-color="#3364DD"/><stop offset=".547" stop-color="#7041C3"/><stop offset=".792" stop-color="#A94DEB"/><stop offset="1" stop-color="#FE80FE"/></linearGradient><linearGradient id="E" x2="410" gradientUnits="userSpaceOnUse"><stop stop-color="#014FFD"/><stop offset=".255" stop-color="#3364DD"/><stop offset=".547" stop-color="#7041C3"/><stop offset=".792" stop-color="#A94DEB"/><stop offset="1" stop-color="#FE80FE"/></linearGradient><linearGradient id="F" x2="410" gradientUnits="userSpaceOnUse"><stop stop-color="#014FFD"/><stop offset=".255" stop-color="#3364DD"/><stop offset=".547" stop-color="#7041C3"/><stop offset=".792" stop-color="#A94DEB"/><stop offset="1" stop-color="#FE80FE"/></linearGradient><linearGradient id="G" x2="410" gradientUnits="userSpaceOnUse"><stop stop-color="#014FFD"/><stop offset=".255" stop-color="#3364DD"/><stop offset=".547" stop-color="#7041C3"/><stop offset=".792" stop-color="#A94DEB"/><stop offset="1" stop-color="#FE80FE"/></linearGradient><linearGradient id="H" x2="410" gradientUnits="userSpaceOnUse"><stop stop-color="#014FFD"/><stop offset=".255" stop-color="#3364DD"/><stop offset=".547" stop-color="#7041C3"/><stop offset=".792" stop-color="#A94DEB"/><stop offset="1" stop-color="#FE80FE"/></linearGradient><linearGradient id="I" x2="410" gradientUnits="userSpaceOnUse"><stop stop-color="#014FFD"/><stop offset=".255" stop-color="#3364DD"/><stop offset=".547" stop-color="#7041C3"/><stop offset=".792" stop-color="#A94DEB"/><stop offset="1" stop-color="#FE80FE"/></linearGradient><linearGradient id="J" x2="410" gradientUnits="userSpaceOnUse"><stop stop-color="#014FFD"/><stop offset=".255" stop-color="#3364DD"/><stop offset=".547" stop-color="#7041C3"/><stop offset=".792" stop-color="#A94DEB"/><stop offset="1" stop-color="#FE80FE"/></linearGradient></defs></svg>