<svg width="262" height="133" viewBox="0 0 262 133" fill="none" xmlns="http://www.w3.org/2000/svg"><path d="M7.659 0h5.632L0 13.29V7.66L7.659 0z" fill="url(#a)"/><path d="M29.684 0h5.633L0 35.316v-5.632L29.684 0z" fill="url(#b)"/><path d="M51.71 0h5.632L0 57.342V51.71L51.71 0z" fill="url(#c)"/><path d="M73.736 0h5.631L0 79.367v-5.632L73.736 0z" fill="url(#d)"/><path d="M95.78 0h5.631L0 101.411v-5.65L95.78 0z" fill="url(#e)"/><path d="M117.805 0h5.632L0 123.436v-5.631L117.805 0z" fill="url(#f)"/><path d="M139.835 0h5.632L12.722 132.746H7.09L139.835 0z" fill="url(#g)"/><path d="M161.849 0h5.632L34.736 132.746h-5.632L161.849 0z" fill="url(#h)"/><path d="M183.878 0h5.633L56.765 132.746h-5.632L183.878 0z" fill="url(#i)"/><path d="M205.922 0h5.632L78.791 132.746h-5.632L205.922 0z" fill="url(#j)"/><path d="M227.951 0h5.632L100.837 132.746h-5.65L227.952 0z" fill="url(#k)"/><path d="M249.973 0h5.632L122.86 132.746h-5.632L249.973 0z" fill="url(#l)"/><path d="M139.257 132.746L261.94 10.063v5.632L144.889 132.746h-5.632z" fill="url(#m)"/><path d="M161.287 132.745L261.944 32.087v5.632l-95.025 95.026h-5.632z" fill="url(#n)"/><path d="M183.312 132.746l78.632-78.633v5.633l-73 73h-5.632z" fill="url(#o)"/><path d="M205.326 132.746l56.607-56.607v5.632l-50.975 50.975h-5.632z" fill="url(#p)"/><path d="M227.382 132.746l34.563-34.58v5.631l-28.931 28.949h-5.632z" fill="url(#q)"/><path d="M249.396 132.745l12.537-12.555v5.65l-6.905 6.905h-5.632z" fill="url(#r)"/><defs><linearGradient id="a" x2="261.945" gradientUnits="userSpaceOnUse"><stop stop-color="#014FFD"/><stop offset=".255" stop-color="#3364DD"/><stop offset=".547" stop-color="#7041C3"/><stop offset=".792" stop-color="#A94DEB"/><stop offset="1" stop-color="#FE80FE"/></linearGradient><linearGradient id="b" x2="261.945" gradientUnits="userSpaceOnUse"><stop stop-color="#014FFD"/><stop offset=".255" stop-color="#3364DD"/><stop offset=".547" stop-color="#7041C3"/><stop offset=".792" stop-color="#A94DEB"/><stop offset="1" stop-color="#FE80FE"/></linearGradient><linearGradient id="c" x2="261.945" gradientUnits="userSpaceOnUse"><stop stop-color="#014FFD"/><stop offset=".255" stop-color="#3364DD"/><stop offset=".547" stop-color="#7041C3"/><stop offset=".792" stop-color="#A94DEB"/><stop offset="1" stop-color="#FE80FE"/></linearGradient><linearGradient id="d" x2="261.945" gradientUnits="userSpaceOnUse"><stop stop-color="#014FFD"/><stop offset=".255" stop-color="#3364DD"/><stop offset=".547" stop-color="#7041C3"/><stop offset=".792" stop-color="#A94DEB"/><stop offset="1" stop-color="#FE80FE"/></linearGradient><linearGradient id="e" x2="261.945" gradientUnits="userSpaceOnUse"><stop stop-color="#014FFD"/><stop offset=".255" stop-color="#3364DD"/><stop offset=".547" stop-color="#7041C3"/><stop offset=".792" stop-color="#A94DEB"/><stop offset="1" stop-color="#FE80FE"/></linearGradient><linearGradient id="f" x2="261.945" gradientUnits="userSpaceOnUse"><stop stop-color="#014FFD"/><stop offset=".255" stop-color="#3364DD"/><stop offset=".547" stop-color="#7041C3"/><stop offset=".792" stop-color="#A94DEB"/><stop offset="1" stop-color="#FE80FE"/></linearGradient><linearGradient id="g" x2="261.945" gradientUnits="userSpaceOnUse"><stop stop-color="#014FFD"/><stop offset=".255" stop-color="#3364DD"/><stop offset=".547" stop-color="#7041C3"/><stop offset=".792" stop-color="#A94DEB"/><stop offset="1" stop-color="#FE80FE"/></linearGradient><linearGradient id="h" x2="261.945" gradientUnits="userSpaceOnUse"><stop stop-color="#014FFD"/><stop offset=".255" stop-color="#3364DD"/><stop offset=".547" stop-color="#7041C3"/><stop offset=".792" stop-color="#A94DEB"/><stop offset="1" stop-color="#FE80FE"/></linearGradient><linearGradient id="i" x2="261.945" gradientUnits="userSpaceOnUse"><stop stop-color="#014FFD"/><stop offset=".255" stop-color="#3364DD"/><stop offset=".547" stop-color="#7041C3"/><stop offset=".792" stop-color="#A94DEB"/><stop offset="1" stop-color="#FE80FE"/></linearGradient><linearGradient id="j" x2="261.945" gradientUnits="userSpaceOnUse"><stop stop-color="#014FFD"/><stop offset=".255" stop-color="#3364DD"/><stop offset=".547" stop-color="#7041C3"/><stop offset=".792" stop-color="#A94DEB"/><stop offset="1" stop-color="#FE80FE"/></linearGradient><linearGradient id="k" x2="261.945" gradientUnits="userSpaceOnUse"><stop stop-color="#014FFD"/><stop offset=".255" stop-color="#3364DD"/><stop offset=".547" stop-color="#7041C3"/><stop offset=".792" stop-color="#A94DEB"/><stop offset="1" stop-color="#FE80FE"/></linearGradient><linearGradient id="l" x2="261.945" gradientUnits="userSpaceOnUse"><stop stop-color="#014FFD"/><stop offset=".255" stop-color="#3364DD"/><stop offset=".547" stop-color="#7041C3"/><stop offset=".792" stop-color="#A94DEB"/><stop offset="1" stop-color="#FE80FE"/></linearGradient><linearGradient id="m" x2="261.945" gradientUnits="userSpaceOnUse"><stop stop-color="#014FFD"/><stop offset=".255" stop-color="#3364DD"/><stop offset=".547" stop-color="#7041C3"/><stop offset=".792" stop-color="#A94DEB"/><stop offset="1" stop-color="#FE80FE"/></linearGradient><linearGradient id="n" x2="261.945" gradientUnits="userSpaceOnUse"><stop stop-color="#014FFD"/><stop offset=".255" stop-color="#3364DD"/><stop offset=".547" stop-color="#7041C3"/><stop offset=".792" stop-color="#A94DEB"/><stop offset="1" stop-color="#FE80FE"/></linearGradient><linearGradient id="o" x2="261.945" gradientUnits="userSpaceOnUse"><stop stop-color="#014FFD"/><stop offset=".255" stop-color="#3364DD"/><stop offset=".547" stop-color="#7041C3"/><stop offset=".792" stop-color="#A94DEB"/><stop offset="1" stop-color="#FE80FE"/></linearGradient><linearGradient id="p" x2="261.945" gradientUnits="userSpaceOnUse"><stop stop-color="#014FFD"/><stop offset=".255" stop-color="#3364DD"/><stop offset=".547" stop-color="#7041C3"/><stop offset=".792" stop-color="#A94DEB"/><stop offset="1" stop-color="#FE80FE"/></linearGradient><linearGradient id="q" x2="261.945" gradientUnits="userSpaceOnUse"><stop stop-color="#014FFD"/><stop offset=".255" stop-color="#3364DD"/><stop offset=".547" stop-color="#7041C3"/><stop offset=".792" stop-color="#A94DEB"/><stop offset="1" stop-color="#FE80FE"/></linearGradient><linearGradient id="r" x2="261.945" gradientUnits="userSpaceOnUse"><stop stop-color="#014FFD"/><stop offset=".255" stop-color="#3364DD"/><stop offset=".547" stop-color="#7041C3"/><stop offset=".792" stop-color="#A94DEB"/><stop offset="1" stop-color="#FE80FE"/></linearGradient></defs></svg>